HIERARCHY
ROOT Hips
{
  OFFSET -4.047 41.338 -236.131
  CHANNELS 6 Xposition Yposition Zposition Zrotation Xrotation Yrotation
  JOINT LeftUpLeg
  {
    OFFSET 7.542 -5.485 4.478
    CHANNELS 6 Xposition Yposition Zposition Zrotation Xrotation Yrotation
    JOINT LeftLeg
    {
      OFFSET -0.000 -44.284 0.000
      CHANNELS 6 Xposition Yposition Zposition Zrotation Xrotation Yrotation
      JOINT LeftFoot
      {
        OFFSET -0.000 -38.685 -0.000
        CHANNELS 6 Xposition Yposition Zposition Zrotation Xrotation Yrotation
        End Site
        {
          OFFSET 0.000 -9.706 5.604
        }
      }
    }
  }
  JOINT RightUpLeg
  {
    OFFSET -7.439 -5.818 4.474
    CHANNELS 6 Xposition Yposition Zposition Zrotation Xrotation Yrotation
    JOINT RightLeg
    {
      OFFSET 0.000 -44.668 0.000
      CHANNELS 6 Xposition Yposition Zposition Zrotation Xrotation Yrotation
      JOINT RightFoot
      {
        OFFSET -0.000 -38.285 -0.000
        CHANNELS 6 Xposition Yposition Zposition Zrotation Xrotation Yrotation
        End Site
        {
          OFFSET 0.000 -8.841 5.105
        }
      }
    }
  }
  JOINT Spine
  {
    OFFSET 0.000 4.651 -4.651
    CHANNELS 6 Xposition Yposition Zposition Zrotation Xrotation Yrotation
    JOINT LeftShoulder
    {
      OFFSET -0.000 36.302 0.000
      CHANNELS 6 Xposition Yposition Zposition Zrotation Xrotation Yrotation
      JOINT LeftArm
      {
        OFFSET 19.632 0.000 -0.000
        CHANNELS 6 Xposition Yposition Zposition Zrotation Xrotation Yrotation
        JOINT LeftForeArm
        {
          OFFSET 24.983 0.000 0.000
          CHANNELS 6 Xposition Yposition Zposition Zrotation Xrotation Yrotation
          JOINT LeftHand
          {
            OFFSET 24.968 0.000 -0.000
            CHANNELS 6 Xposition Yposition Zposition Zrotation Xrotation Yrotation
            JOINT LeftHandThumb1
            {
            OFFSET 4.970 -0.620 3.390
            CHANNELS 6 Xposition Yposition Zposition Zrotation Xrotation Yrotation
              JOINT LeftHandThumb2
              {
              OFFSET 2.150 -0.000 0.000
              CHANNELS 6 Xposition Yposition Zposition Zrotation Xrotation Yrotation
                JOINT LeftHandThumb3
                {
                OFFSET 2.200 -0.000 0.000
                CHANNELS 6 Xposition Yposition Zposition Zrotation Xrotation Yrotation
                  JOINT LeftHandThumb4
                  {
                  OFFSET 1.700 -0.000 0.000
                  CHANNELS 6 Xposition Yposition Zposition Zrotation Xrotation Yrotation
                  }
                }
              }
            }
            JOINT LeftHandIndex1
            {
            OFFSET 8.730 0.680 2.070
            CHANNELS 6 Xposition Yposition Zposition Zrotation Xrotation Yrotation
              JOINT LeftHandIndex2
              {
              OFFSET 2.670 -0.000 0.000
              CHANNELS 6 Xposition Yposition Zposition Zrotation Xrotation Yrotation
                JOINT LeftHandIndex3
                {
                OFFSET 2.130 -0.000 0.000
                CHANNELS 6 Xposition Yposition Zposition Zrotation Xrotation Yrotation
                  JOINT LeftHandIndex4
                  {
                  OFFSET 1.800 -0.000 0.000
                  CHANNELS 6 Xposition Yposition Zposition Zrotation Xrotation Yrotation
                  }
                }
              }
            }
            JOINT LeftHandMiddle1
            {
            OFFSET 9.220 0.670 0.550
            CHANNELS 6 Xposition Yposition Zposition Zrotation Xrotation Yrotation
              JOINT LeftHandMiddle2
              {
              OFFSET 2.660 -0.000 0.000
              CHANNELS 6 Xposition Yposition Zposition Zrotation Xrotation Yrotation
                JOINT LeftHandMiddle3
                {
                OFFSET 2.280 -0.000 0.000
                CHANNELS 6 Xposition Yposition Zposition Zrotation Xrotation Yrotation
                  JOINT LeftHandMiddle4
                  {
                  OFFSET 1.500 -0.000 0.000
                  CHANNELS 6 Xposition Yposition Zposition Zrotation Xrotation Yrotation
                  }
                }
              }
            }
            JOINT LeftHandRing1
            {
            OFFSET 9.250 0.670 -1.130
            CHANNELS 6 Xposition Yposition Zposition Zrotation Xrotation Yrotation
              JOINT LeftHandRing2
              {
              OFFSET 2.470 -0.000 0.000
              CHANNELS 6 Xposition Yposition Zposition Zrotation Xrotation Yrotation
                JOINT LeftHandRing3
                {
                OFFSET 2.210 -0.000 0.000
                CHANNELS 6 Xposition Yposition Zposition Zrotation Xrotation Yrotation
                  JOINT LeftHandRing4
                  {
                  OFFSET 1.800 -0.000 0.000
                  CHANNELS 6 Xposition Yposition Zposition Zrotation Xrotation Yrotation
                  }
                }
              }
            }
            JOINT LeftHandPinky1
            {
            OFFSET 9.350 0.660 -2.720
            CHANNELS 6 Xposition Yposition Zposition Zrotation Xrotation Yrotation
              JOINT LeftHandPinky2
              {
              OFFSET 1.630 -0.000 0.000
              CHANNELS 6 Xposition Yposition Zposition Zrotation Xrotation Yrotation
                JOINT LeftHandPinky3
                {
                OFFSET 1.710 -0.000 0.000
                CHANNELS 6 Xposition Yposition Zposition Zrotation Xrotation Yrotation
                  JOINT LeftHandPinky4
                  {
                  OFFSET 1.800 -0.000 0.000
                  CHANNELS 6 Xposition Yposition Zposition Zrotation Xrotation Yrotation
                  }
                }
              }
            }
          }
        }
      }
    }
    JOINT RightShoulder
    {
      OFFSET -0.000 36.302 0.000
      CHANNELS 6 Xposition Yposition Zposition Zrotation Xrotation Yrotation
      JOINT RightArm
      {
        OFFSET -20.321 0.000 -0.000
        CHANNELS 6 Xposition Yposition Zposition Zrotation Xrotation Yrotation
        JOINT RightForeArm
        {
          OFFSET -25.855 0.000 0.000
          CHANNELS 6 Xposition Yposition Zposition Zrotation Xrotation Yrotation
          JOINT RightHand
          {
            OFFSET -25.781 0.000 -0.000
            CHANNELS 6 Xposition Yposition Zposition Zrotation Xrotation Yrotation
            JOINT RightHandThumb1
            {
            OFFSET -4.970 -0.620 3.390
            CHANNELS 6 Xposition Yposition Zposition Zrotation Xrotation Yrotation
              JOINT RightHandThumb2
              {
              OFFSET -2.150 0.000 0.000
              CHANNELS 6 Xposition Yposition Zposition Zrotation Xrotation Yrotation
                JOINT RightHandThumb3
                {
                OFFSET -2.200 0.000 0.000
                CHANNELS 6 Xposition Yposition Zposition Zrotation Xrotation Yrotation
                  JOINT RightHandThumb4
                  {
                  OFFSET -1.700 0.000 0.000
                  CHANNELS 6 Xposition Yposition Zposition Zrotation Xrotation Yrotation
                  }
                }
              }
            }
            JOINT RightHandIndex1
            {
            OFFSET -8.730 0.680 2.070
            CHANNELS 6 Xposition Yposition Zposition Zrotation Xrotation Yrotation
              JOINT RightHandIndex2
              {
              OFFSET -2.670 0.000 0.000
              CHANNELS 6 Xposition Yposition Zposition Zrotation Xrotation Yrotation
                JOINT RightHandIndex3
                {
                OFFSET -2.130 0.000 0.000
                CHANNELS 6 Xposition Yposition Zposition Zrotation Xrotation Yrotation
                  JOINT RightHandIndex4
                  {
                  OFFSET -1.800 0.000 0.000
                  CHANNELS 6 Xposition Yposition Zposition Zrotation Xrotation Yrotation
                  }
                }
              }
            }
            JOINT RightHandMiddle1
            {
            OFFSET -9.220 0.670 0.550
            CHANNELS 6 Xposition Yposition Zposition Zrotation Xrotation Yrotation
              JOINT RightHandMiddle2
              {
              OFFSET -2.660 0.000 0.000
              CHANNELS 6 Xposition Yposition Zposition Zrotation Xrotation Yrotation
                JOINT RightHandMiddle3
                {
                OFFSET -2.280 0.000 0.000
                CHANNELS 6 Xposition Yposition Zposition Zrotation Xrotation Yrotation
                  JOINT RightHandMiddle4
                  {
                  OFFSET -1.500 0.000 0.000
                  CHANNELS 6 Xposition Yposition Zposition Zrotation Xrotation Yrotation
                  }
                }
              }
            }
            JOINT RightHandRing1
            {
            OFFSET -9.250 0.670 -1.130
            CHANNELS 6 Xposition Yposition Zposition Zrotation Xrotation Yrotation
              JOINT RightHandRing2
              {
              OFFSET -2.470 0.000 0.000
              CHANNELS 6 Xposition Yposition Zposition Zrotation Xrotation Yrotation
                JOINT RightHandRing3
                {
                OFFSET -2.210 0.000 0.000
                CHANNELS 6 Xposition Yposition Zposition Zrotation Xrotation Yrotation
                  JOINT RightHandRing4
                  {
                  OFFSET -1.800 0.000 0.000
                  CHANNELS 6 Xposition Yposition Zposition Zrotation Xrotation Yrotation
                  }
                }
              }
            }
            JOINT RightHandPinky1
            {
            OFFSET -9.350 0.660 -2.720
            CHANNELS 6 Xposition Yposition Zposition Zrotation Xrotation Yrotation
              JOINT RightHandPinky2
              {
              OFFSET -1.630 0.000 0.000
              CHANNELS 6 Xposition Yposition Zposition Zrotation Xrotation Yrotation
                JOINT RightHandPinky3
                {
                OFFSET -1.710 0.000 0.000
                CHANNELS 6 Xposition Yposition Zposition Zrotation Xrotation Yrotation
                  JOINT RightHandPinky4
                  {
                  OFFSET -1.800 0.000 0.000
                  CHANNELS 6 Xposition Yposition Zposition Zrotation Xrotation Yrotation
                  }
                }
              }
            }
          }
        }
      }
    }
    JOINT Neck
    {
      OFFSET -0.000 36.302 0.000
      CHANNELS 6 Xposition Yposition Zposition Zrotation Xrotation Yrotation
      JOINT Head
      {
        OFFSET -0.000 12.678 -0.000
        CHANNELS 6 Xposition Yposition Zposition Zrotation Xrotation Yrotation
        End Site
        {
          OFFSET -0.000 0.051 -0.000
        }
      }
    }
  }
}
MOTION
Frames:	5
Frame Time:	0.0333333
6.01577 38.6927 -230.24 -1.02271 5.00098 -1.1089 7.50645 -6.68311 1.94097 4.60639 8.9608 -3.77921 -3.35276e-06 -44.5341 4.76837e-05 -5.49186 -4.33062 -0.415966 -2.8871e-06 -36.8051 -4.76837e-05 36.0495 7.80929 15.093 -7.4075 -7.04048 1.07772 -4.35391 7.5937 -2.54218 1.49012e-06 -45.5198 2.38419e-05 8.12767 -2.36331 0.337414 -5.96046e-06 -38.399 0 -0.427817 -13.8874 0.800894 7.45058e-07 6.1892 -6.18918 0.473605 -2.90389 0.174073 -3.91155e-06 36.3015 4.76837e-05 -33.1256 1.21663e-05 -3.24979 19.0374 0 -4.76837e-05 -41.3818 32.6948 2.64491 25.3058 0 0 -2.11586e-07 1.70755e-06 -22.6856 21.5553 0 0 -13.6353 0.526263 -0.477761 0.0062 0.0497 0.0339 0 0 0 0 0.0215 0 0 0 0 0 0.022 0 0 0 0 0 0.017 0 0 0 0 -0.0068 0.0873 0.0207 0 0 0 0 0.0267 0 0 0 0 0 0.0213 0 0 0 0 0 0.018 0 0 0 0 -0.0067 0.0922 0.0055 0 0 0 0 0.0266 0 0 0 0 0 0.0228 0 0 0 0 0 0.015 0 0 0 0 -0.0067 0.0925 -0.0113 0 0 0 0 0.0247 0 0 0 0 0 0.0221 0 0 0 0 0 0.018 0 0 0 0 -0.0066 0.0935 -0.0272 0 0 0 0 0.0163 0 0 0 0 0 0.0171 0 0 0 0 0 0.018 0 0 0 0 -3.91155e-06 36.3015 4.76837e-05 30.8167 -3.73526e-06 3.0996 -19.9588 1.78814e-05 -4.76837e-05 56.2443 -1.80991 -6.93794 -41.642 0 -2.38419e-05 1.83151e-06 3.235e-06 40.5668 -17.4868 5.96046e-06 4.76837e-05 -0.841891 0.337481 18.772 -0.0062 0.0497 0.0339 0 0 0 0 0.0215 0 0 0 0 0 0.022 0 0 0 0 0 0.017 0 0 0 0 0.0068 0.0873 0.0207 0 0 0 0 0.0267 0 0 0 0 0 0.0213 0 0 0 0 0 0.018 0 0 0 0 0.0067 0.0922 0.0055 0 0 0 0 0.0266 0 0 0 0 0 0.0228 0 0 0 0 0 0.015 0 0 0 0 0.0067 0.0925 -0.0113 0 0 0 0 0.0247 0 0 0 0 0 0.0221 0 0 0 0 0 0.018 0 0 0 0 0.0066 0.0935 -0.0272 0 0 0 0 0.0163 0 0 0 0 0 0.0171 0 0 0 0 0 0.018 0 0 0 0 -3.91155e-06 36.3015 4.76837e-05 -42.5844 -79.9626 -42.1444 -5.96046e-06 7.36046 2.98023e-06 1.02453e-05 -1.10991e-05 1.06722e-07 
4.28681 39.1471 -229.263 -0.932254 5.09941 -1.02234 7.50121 -6.87749 1.92342 4.52151 8.66396 -3.4879 7.45058e-07 -44.6978 0 -5.3972 -4.12008 -0.388919 4.19095e-06 -37.4711 0 35.3217 4.3622 18.1387 -7.42715 -7.132 1.14532 -4.62592 7.53334 -2.23639 2.98023e-06 -45.8501 2.38419e-05 7.77898 -2.40809 0.328865 -5.96046e-06 -38.4251 0 -2.24081 -12.2664 -0.862664 -3.25963e-07 6.27304 -6.27308 0.391722 -2.98627 0.00415071 -1.97906e-06 36.3015 -2.38419e-05 -32.1287 1.23797e-05 -3.26201 18.9376 1.19209e-05 0 -43.1135 31.9567 3.48375 25.6641 3.57628e-05 7.15256e-05 -1.50526e-06 1.19528e-05 -22.5635 22.1092 0 -2.38419e-05 -12.2607 0.221792 0.799387 0.0062 0.0497 0.0339 0 0 0 0 0.0215 0 0 0 0 0 0.022 0 0 0 0 0 0.017 0 0 0 0 -0.0068 0.0873 0.0207 0 0 0 0 0.0267 0 0 0 0 0 0.0213 0 0 0 0 0 0.018 0 0 0 0 -0.0067 0.0922 0.0055 0 0 0 0 0.0266 0 0 0 0 0 0.0228 0 0 0 0 0 0.015 0 0 0 0 -0.0067 0.0925 -0.0113 0 0 0 0 0.0247 0 0 0 0 0 0.0221 0 0 0 0 0 0.018 0 0 0 0 -0.0066 0.0935 -0.0272 0 0 0 0 0.0163 0 0 0 0 0 0.0171 0 0 0 0 0 0.018 0 0 0 0 -1.97906e-06 36.3015 -2.38419e-05 29.8477 -2.56132e-06 3.12651 -19.7574 1.78814e-05 2.38419e-05 54.4414 4.5056 -4.9364 -36.9583 -5.96046e-06 0 -7.05406e-07 2.13443e-06 34.8378 -19.8003 -7.45058e-07 2.38419e-05 3.55575 0.545583 14.37 -0.0062 0.0497 0.0339 0 0 0 0 0.0215 0 0 0 0 0 0.022 0 0 0 0 0 0.017 0 0 0 0 0.0068 0.0873 0.0207 0 0 0 0 0.0267 0 0 0 0 0 0.0213 0 0 0 0 0 0.018 0 0 0 0 0.0067 0.0922 0.0055 0 0 0 0 0.0266 0 0 0 0 0 0.0228 0 0 0 0 0 0.015 0 0 0 0 0.0067 0.0925 -0.0113 0 0 0 0 0.0247 0 0 0 0 0 0.0221 0 0 0 0 0 0.018 0 0 0 0 0.0066 0.0935 -0.0272 0 0 0 0 0.0163 0 0 0 0 0 0.0171 0 0 0 0 0 0.018 0 0 0 0 -1.97906e-06 36.3015 -2.38419e-05 -58.4358 -70.823 -56.9586 -5.96046e-06 7.40113 2.98023e-06 1.19528e-05 -1.02453e-05 4.26887e-07 
4.28681 39.1471 -229.263 -0.932254 5.09941 -1.02234 7.50121 -6.87749 1.92342 4.52151 8.66396 -3.4879 7.45058e-07 -44.6978 0 -5.3972 -4.12008 -0.388919 4.19095e-06 -37.4711 0 35.3217 4.3622 18.1387 -7.42715 -7.132 1.14532 -4.62592 7.53334 -2.23639 2.98023e-06 -45.8501 2.38419e-05 7.77898 -2.40809 0.328865 -5.96046e-06 -38.4251 0 -2.24081 -12.2664 -0.862664 -3.25963e-07 6.27304 -6.27308 0.391722 -2.98627 0.00415071 -1.97906e-06 36.3015 -2.38419e-05 -32.1287 1.23797e-05 -3.26201 18.9376 1.19209e-05 0 -43.1135 31.9567 3.48375 25.6641 3.57628e-05 7.15256e-05 -1.50526e-06 1.19528e-05 -22.5635 22.1092 0 -2.38419e-05 -12.2607 0.221792 0.799387 0.0062 0.0497 0.0339 0 0 0 0 0.0215 0 0 0 0 0 0.022 0 0 0 0 0 0.017 0 0 0 0 -0.0068 0.0873 0.0207 0 0 0 0 0.0267 0 0 0 0 0 0.0213 0 0 0 0 0 0.018 0 0 0 0 -0.0067 0.0922 0.0055 0 0 0 0 0.0266 0 0 0 0 0 0.0228 0 0 0 0 0 0.015 0 0 0 0 -0.0067 0.0925 -0.0113 0 0 0 0 0.0247 0 0 0 0 0 0.0221 0 0 0 0 0 0.018 0 0 0 0 -0.0066 0.0935 -0.0272 0 0 0 0 0.0163 0 0 0 0 0 0.0171 0 0 0 0 0 0.018 0 0 0 0 -1.97906e-06 36.3015 -2.38419e-05 29.8477 -2.56132e-06 3.12651 -19.7574 1.78814e-05 2.38419e-05 54.4414 4.5056 -4.9364 -36.9583 -5.96046e-06 0 -7.05406e-07 2.13443e-06 34.8378 -19.8003 -7.45058e-07 2.38419e-05 3.55575 0.545583 14.37 -0.0062 0.0497 0.0339 0 0 0 0 0.0215 0 0 0 0 0 0.022 0 0 0 0 0 0.017 0 0 0 0 0.0068 0.0873 0.0207 0 0 0 0 0.0267 0 0 0 0 0 0.0213 0 0 0 0 0 0.018 0 0 0 0 0.0067 0.0922 0.0055 0 0 0 0 0.0266 0 0 0 0 0 0.0228 0 0 0 0 0 0.015 0 0 0 0 0.0067 0.0925 -0.0113 0 0 0 0 0.0247 0 0 0 0 0 0.0221 0 0 0 0 0 0.018 0 0 0 0 0.0066 0.0935 -0.0272 0 0 0 0 0.0163 0 0 0 0 0 0.0171 0 0 0 0 0 0.018 0 0 0 0 -1.97906e-06 36.3015 -2.38419e-05 -58.4358 -70.823 -56.9586 -5.96046e-06 7.40113 2.98023e-06 1.19528e-05 -1.02453e-05 4.26887e-07 
3.48892 39.3773 -228.811 -0.868085 5.17589 -0.836299 7.48901 -6.98208 1.92862 4.52514 8.43853 -3.43029 -7.45058e-07 -44.759 2.38419e-05 -5.38128 -4.00433 -0.376889 1.39698e-06 -37.8402 -7.15256e-05 35.2022 3.81534 19.1956 -7.43182 -7.1702 1.17319 -4.72747 7.45459 -2.17888 5.96046e-06 -45.9893 -2.38419e-05 7.62131 -2.41608 0.323189 -2.98023e-06 -38.45 -7.15256e-05 -2.891 -11.4396 -1.52134 1.62981e-06 6.31445 -6.31442 0.35686 -3.0603 -0.0729481 -4.09782e-06 36.3015 0 -31.4972 1.15259e-05 -3.222 18.8925 -1.19209e-05 2.38419e-05 -44.3766 30.0779 4.02973 25.6281 -2.38419e-05 0 3.76806e-06 6.83019e-06 -22.601 22.5051 -2.98023e-05 1.19209e-05 -11.5448 0.12924 1.27754 0.0062 0.0497 0.0339 0 0 0 0 0.0215 0 0 0 0 0 0.022 0 0 0 0 0 0.017 0 0 0 0 -0.0068 0.0873 0.0207 0 0 0 0 0.0267 0 0 0 0 0 0.0213 0 0 0 0 0 0.018 0 0 0 0 -0.0067 0.0922 0.0055 0 0 0 0 0.0266 0 0 0 0 0 0.0228 0 0 0 0 0 0.015 0 0 0 0 -0.0067 0.0925 -0.0113 0 0 0 0 0.0247 0 0 0 0 0 0.0221 0 0 0 0 0 0.018 0 0 0 0 -0.0066 0.0935 -0.0272 0 0 0 0 0.0163 0 0 0 0 0 0.0171 0 0 0 0 0 0.018 0 0 0 0 -4.09782e-06 36.3015 0 29.3575 -4.16215e-06 3.10728 -19.5893 -1.19209e-05 0 53.2936 8.92291 -3.74303 -34.5749 1.04308e-05 2.38419e-05 -3.10101e-06 2.56132e-06 31.8777 -21.0328 -1.49012e-06 2.38419e-05 7.38256 0.599839 9.37182 -0.0062 0.0497 0.0339 0 0 0 0 0.0215 0 0 0 0 0 0.022 0 0 0 0 0 0.017 0 0 0 0 0.0068 0.0873 0.0207 0 0 0 0 0.0267 0 0 0 0 0 0.0213 0 0 0 0 0 0.018 0 0 0 0 0.0067 0.0922 0.0055 0 0 0 0 0.0266 0 0 0 0 0 0.0228 0 0 0 0 0 0.015 0 0 0 0 0.0067 0.0925 -0.0113 0 0 0 0 0.0247 0 0 0 0 0 0.0221 0 0 0 0 0 0.018 0 0 0 0 0.0066 0.0935 -0.0272 0 0 0 0 0.0163 0 0 0 0 0 0.0171 0 0 0 0 0 0.018 0 0 0 0 -4.09782e-06 36.3015 0 -64.5169 -64.3107 -62.1261 1.78814e-05 7.3668 2.98023e-06 8.53774e-06 -1.19528e-05 0 
2.72226 39.5697 -228.416 -0.522533 5.2761 -0.969968 7.41472 -7.05998 1.8641 4.30892 8.12381 -2.85842 1.11759e-06 -44.8405 2.38419e-05 -5.51093 -3.77004 -0.363472 -1.42027e-06 -38.2086 0 33.6279 1.38608 19.9512 -7.42749 -7.16888 1.2609 -5.13332 7.31251 -1.61092 1.49012e-06 -46.107 -2.38419e-05 7.46892 -2.46517 0.323082 4.47035e-06 -38.4546 2.38419e-05 -3.51457 -10.5609 -2.1494 9.31323e-07 6.35789 -6.35788 0.104822 -3.17564 0.206888 -2.23517e-06 36.3015 4.76837e-05 -30.1959 1.32335e-05 -3.36742 18.4051 -2.38419e-05 7.15256e-05 -46.1783 27.8725 5.10387 25.6444 -3.57628e-05 -2.38419e-05 -3.46841e-07 -5.12264e-06 -23.2984 23.3232 2.98023e-05 0 -10.7357 0.0350287 2.19209 0.0062 0.0497 0.0339 0 0 0 0 0.0215 0 0 0 0 0 0.022 0 0 0 0 0 0.017 0 0 0 0 -0.0068 0.0873 0.0207 0 0 0 0 0.0267 0 0 0 0 0 0.0213 0 0 0 0 0 0.018 0 0 0 0 -0.0067 0.0922 0.0055 0 0 0 0 0.0266 0 0 0 0 0 0.0228 0 0 0 0 0 0.015 0 0 0 0 -0.0067 0.0925 -0.0113 0 0 0 0 0.0247 0 0 0 0 0 0.0221 0 0 0 0 0 0.018 0 0 0 0 -0.0066 0.0935 -0.0272 0 0 0 0 0.0163 0 0 0 0 0 0.0171 0 0 0 0 0 0.018 0 0 0 0 -2.23517e-06 36.3015 4.76837e-05 28.8126 -2.13443e-06 3.20326 -19.3472 -5.96046e-06 -7.15256e-05 51.9121 14.3813 -2.51172 -32.2174 5.96046e-06 4.76837e-05 5.17401e-07 1.70755e-06 29.0137 -22.2855 5.96046e-06 -1.19209e-05 8.21651 0.218345 3.20441 -0.0062 0.0497 0.0339 0 0 0 0 0.0215 0 0 0 0 0 0.022 0 0 0 0 0 0.017 0 0 0 0 0.0068 0.0873 0.0207 0 0 0 0 0.0267 0 0 0 0 0 0.0213 0 0 0 0 0 0.018 0 0 0 0 0.0067 0.0922 0.0055 0 0 0 0 0.0266 0 0 0 0 0 0.0228 0 0 0 0 0 0.015 0 0 0 0 0.0067 0.0925 -0.0113 0 0 0 0 0.0247 0 0 0 0 0 0.0221 0 0 0 0 0 0.018 0 0 0 0 0.0066 0.0935 -0.0272 0 0 0 0 0.0163 0 0 0 0 0 0.0171 0 0 0 0 0 0.018 0 0 0 0 -2.23517e-06 36.3015 4.76837e-05 -63.3054 -60.0638 -59.8758 1.19209e-05 7.44584 -3.27826e-05 1.19528e-05 -1.10991e-05 0 
